<svg width="120" height="17" viewBox="0 0 120 17" fill="none" xmlns="http://www.w3.org/2000/svg">
<path d="M3.26539 11.52V9.06H6.10539C6.67872 9.06 7.15872 8.94667 7.54539 8.72C7.94539 8.49333 8.24539 8.18 8.44539 7.78C8.65872 7.38 8.76539 6.92 8.76539 6.4C8.76539 5.88 8.65872 5.42 8.44539 5.02C8.24539 4.62 7.94539 4.31333 7.54539 4.1C7.15872 3.87333 6.67872 3.76 6.10539 3.76H3.26539V1.3H5.86539C7.09206 1.3 8.13206 1.5 8.98539 1.9C9.85206 2.3 10.5121 2.87333 10.9654 3.62C11.4187 4.35333 11.6454 5.22667 11.6454 6.24V6.56C11.6454 7.57333 11.4187 8.45333 10.9654 9.2C10.5121 9.93333 9.85206 10.5067 8.98539 10.92C8.13206 11.32 7.09206 11.52 5.86539 11.52H3.26539ZM0.825391 16V1.3H3.66539V16H0.825391ZM16.9895 16V1.4H19.7695V16H16.9895ZM19.3695 16V13.6H25.9895V16H19.3695ZM19.3695 9.78V7.38H25.4695V9.78H19.3695ZM19.3695 3.8V1.4H25.8295V3.8H19.3695ZM31.9035 16V1.3H34.7435V16H31.9035ZM40.8235 16L36.3435 9.64H39.5235L44.1435 16H40.8235ZM33.9035 11.12V8.82H37.6235C38.1435 8.82 38.5902 8.71333 38.9635 8.5C39.3502 8.28667 39.6502 7.98667 39.8635 7.6C40.0768 7.21333 40.1835 6.77333 40.1835 6.28C40.1835 5.77333 40.0768 5.32667 39.8635 4.94C39.6502 4.55333 39.3502 4.25333 38.9635 4.04C38.5902 3.82667 38.1435 3.72 37.6235 3.72H33.9035V1.3H37.3235C38.4968 1.3 39.5102 1.47333 40.3635 1.82C41.2302 2.16667 41.8968 2.69333 42.3635 3.4C42.8302 4.10667 43.0635 4.99333 43.0635 6.06V6.38C43.0635 7.46 42.8235 8.34667 42.3435 9.04C41.8768 9.73333 41.2168 10.2533 40.3635 10.6C39.5102 10.9467 38.4968 11.12 37.3235 11.12H33.9035ZM54.1609 16.38C52.8675 16.38 51.7742 16.1733 50.8809 15.76C50.0009 15.3467 49.3275 14.78 48.8609 14.06C48.3942 13.3267 48.1609 12.5 48.1609 11.58H50.9409C50.9409 11.9667 51.0475 12.3467 51.2609 12.72C51.4742 13.08 51.8142 13.3733 52.2809 13.6C52.7609 13.8267 53.3875 13.94 54.1609 13.94C54.8542 13.94 55.4342 13.84 55.9009 13.64C56.3675 13.44 56.7142 13.18 56.9409 12.86C57.1675 12.5267 57.2809 12.1533 57.2809 11.74C57.2809 11.22 57.0609 10.8067 56.6209 10.5C56.1809 10.18 55.5009 9.98 54.5809 9.9L53.3009 9.8C51.9009 9.68 50.7809 9.24667 49.9409 8.5C49.1142 7.74 48.7009 6.74 48.7009 5.5C48.7009 4.56667 48.9209 3.76667 49.3609 3.1C49.8009 2.42 50.4142 1.9 51.2009 1.54C52.0009 1.16667 52.9342 0.979999 54.0009 0.979999C55.1075 0.979999 56.0609 1.17333 56.8609 1.56C57.6609 1.94667 58.2809 2.49333 58.7209 3.2C59.1609 3.89333 59.3809 4.71333 59.3809 5.66H56.6009C56.6009 5.26 56.5009 4.89333 56.3009 4.56C56.1142 4.21333 55.8275 3.94 55.4409 3.74C55.0675 3.52667 54.5875 3.42 54.0009 3.42C53.4409 3.42 52.9742 3.51333 52.6009 3.7C52.2275 3.88667 51.9475 4.14 51.7609 4.46C51.5742 4.78 51.4809 5.12667 51.4809 5.5C51.4809 5.95333 51.6475 6.35333 51.9809 6.7C52.3142 7.03333 52.8409 7.22667 53.5609 7.28L54.8409 7.4C55.8809 7.48 56.7942 7.7 57.5809 8.06C58.3675 8.42 58.9742 8.90667 59.4009 9.52C59.8409 10.1333 60.0609 10.8733 60.0609 11.74C60.0609 12.66 59.8209 13.4733 59.3409 14.18C58.8609 14.8733 58.1742 15.4133 57.2809 15.8C56.4009 16.1867 55.3609 16.38 54.1609 16.38ZM72.5174 16.38C71.1974 16.38 70.0508 16.1467 69.0774 15.68C68.1174 15.2133 67.3174 14.6067 66.6774 13.86C66.0508 13.1 65.5774 12.2867 65.2574 11.42C64.9508 10.54 64.7974 9.69333 64.7974 8.88V8.44C64.7974 7.54667 64.9574 6.66 65.2774 5.78C65.5974 4.88667 66.0774 4.08 66.7174 3.36C67.3708 2.64 68.1774 2.06667 69.1374 1.64C70.0974 1.2 71.2241 0.979999 72.5174 0.979999C73.7974 0.979999 74.9174 1.2 75.8774 1.64C76.8374 2.06667 77.6374 2.64 78.2774 3.36C78.9308 4.08 79.4174 4.88667 79.7374 5.78C80.0574 6.66 80.2174 7.54667 80.2174 8.44V8.88C80.2174 9.69333 80.0574 10.54 79.7374 11.42C79.4308 12.2867 78.9574 13.1 78.3174 13.86C77.6908 14.6067 76.8908 15.2133 75.9174 15.68C74.9574 16.1467 73.8241 16.38 72.5174 16.38ZM72.5174 13.74C73.2641 13.74 73.9308 13.6067 74.5174 13.34C75.1174 13.0733 75.6241 12.7067 76.0374 12.24C76.4641 11.76 76.7841 11.22 76.9974 10.62C77.2241 10.0067 77.3374 9.36 77.3374 8.68C77.3374 7.94667 77.2241 7.27333 76.9974 6.66C76.7841 6.04667 76.4641 5.51333 76.0374 5.06C75.6241 4.60667 75.1174 4.25333 74.5174 4C73.9174 3.74667 73.2508 3.62 72.5174 3.62C71.7708 3.62 71.0974 3.74667 70.4974 4C69.8974 4.25333 69.3841 4.60667 68.9574 5.06C68.5441 5.51333 68.2241 6.04667 67.9974 6.66C67.7841 7.27333 67.6774 7.94667 67.6774 8.68C67.6774 9.36 67.7841 10.0067 67.9974 10.62C68.2241 11.22 68.5441 11.76 68.9574 12.24C69.3841 12.7067 69.8974 13.0733 70.4974 13.34C71.0974 13.6067 71.7708 13.74 72.5174 13.74ZM85.9621 16V1.4H90.6221L96.7621 13.64H97.4221L97.0221 14V1.4H99.7021V16H95.0221L88.8821 3.76H88.2021L88.6021 3.4V16H85.9621ZM104.866 16L109.846 1.4H114.486L119.606 16H116.686L112.346 3.34L113.366 3.78H110.866L111.906 3.34L107.706 16H104.866ZM108.346 12.12L109.246 9.72H115.166L116.046 12.12H108.346Z" fill="#E63946"/>
</svg>
